<svg width="19" height="13" viewBox="0 0 19 13" fill="none" xmlns="http://www.w3.org/2000/svg">
<path d="M9.2 2.75V2.78125C11.1375 2.78125 12.7 4.34375 12.7 6.25C12.7 8.1875 11.1375 9.75 9.2 9.75C7.2625 9.75 5.7 8.1875 5.7 6.25C5.7 5.90625 5.7625 5.59375 5.85625 5.28125C6.075 5.4375 6.3875 5.5 6.7 5.5C7.6375 5.5 8.45 4.71875 8.45 3.75C8.41875 3.46875 8.35625 3.15625 8.2 2.90625C8.5125 2.8125 8.85625 2.78125 9.2 2.75ZM18.075 5.8125C18.1375 5.9375 18.1688 6.09375 18.1688 6.28125C18.1688 6.4375 18.1375 6.59375 18.075 6.71875C16.3875 10.0312 13.0125 12.25 9.2 12.25C5.35625 12.25 1.98125 10.0312 0.293751 6.71875C0.231251 6.59375 0.200001 6.4375 0.200001 6.25C0.200001 6.09375 0.231251 5.9375 0.293751 5.8125C1.98125 2.5 5.35625 0.25 9.2 0.25C13.0125 0.25 16.3875 2.5 18.075 5.8125ZM9.2 10.75C12.2625 10.75 15.1063 9.03125 16.6063 6.25C15.1063 3.46875 12.2625 1.75 9.2 1.75C6.10625 1.75 3.2625 3.46875 1.7625 6.25C3.2625 9.03125 6.10625 10.75 9.2 10.75Z" fill="#D4D4D4"/>
</svg>
