<svg width="21" height="17" viewBox="0 0 21 17" fill="none" xmlns="http://www.w3.org/2000/svg">
<path d="M3.39697 13.166C3.70947 13.166 4.02197 13.4785 4.02197 13.791V16.291C4.02197 16.6426 3.70947 16.916 3.39697 16.916H0.896973C0.54541 16.916 0.271973 16.6426 0.271973 16.291V13.791C0.271973 13.4785 0.54541 13.166 0.896973 13.166H3.39697ZM3.39697 0.666016C3.70947 0.666016 4.02197 0.978516 4.02197 1.29102V3.79102C4.02197 4.14258 3.70947 4.41602 3.39697 4.41602H0.896973C0.54541 4.41602 0.271973 4.14258 0.271973 3.79102V1.29102C0.271973 0.978516 0.54541 0.666016 0.896973 0.666016H3.39697ZM3.39697 6.91602C3.70947 6.91602 4.02197 7.22852 4.02197 7.54102V10.041C4.02197 10.3926 3.70947 10.666 3.39697 10.666H0.896973C0.54541 10.666 0.271973 10.3926 0.271973 10.041V7.54102C0.271973 7.22852 0.54541 6.91602 0.896973 6.91602H3.39697ZM19.647 13.791C19.9595 13.791 20.272 14.1035 20.272 14.416V15.666C20.272 16.0176 19.9595 16.291 19.647 16.291H7.14697C6.79541 16.291 6.52197 16.0176 6.52197 15.666V14.416C6.52197 14.1035 6.79541 13.791 7.14697 13.791H19.647ZM19.647 1.29102C19.9595 1.29102 20.272 1.60352 20.272 1.91602V3.16602C20.272 3.51758 19.9595 3.79102 19.647 3.79102H7.14697C6.79541 3.79102 6.52197 3.51758 6.52197 3.16602V1.91602C6.52197 1.60352 6.79541 1.29102 7.14697 1.29102H19.647ZM19.647 7.54102C19.9595 7.54102 20.272 7.85352 20.272 8.16602V9.41602C20.272 9.76758 19.9595 10.041 19.647 10.041H7.14697C6.79541 10.041 6.52197 9.76758 6.52197 9.41602V8.16602C6.52197 7.85352 6.79541 7.54102 7.14697 7.54102H19.647Z" fill="#D4D4D4"/>
</svg>
